<svg id="basketRoot" width="18" height="18" fill="none" xmlns="http://www.w3.org/2000/svg"><path d="M10.5 0c.943 0 1.85.33 2.534.92.685.592 1.096 1.4 1.15 2.26l.005.19h5.96a.89.89 0 0 1 .58.21.753.753 0 0 1 .269.515.734.734 0 0 1-.189.544.874.874 0 0 1-.544.28l-.116.007h-.904l-1.453 13.502a2.763 2.763 0 0 1-.937 1.77c-.533.47-1.23.753-1.97.796l-.2.006h-8.37c-.74 0-1.457-.24-2.022-.679a2.802 2.802 0 0 1-1.059-1.713l-.026-.18L1.754 4.925H.85a.9.9 0 0 1-.56-.192.761.761 0 0 1-.283-.48L0 4.148a.74.74 0 0 1 .21-.511.877.877 0 0 1 .526-.26L.85 3.37h5.96c0-.894.389-1.75 1.08-2.383A3.879 3.879 0 0 1 10.501 0Zm7.035 4.926H3.465l1.438 13.349c.032.298.175.576.406.788.231.212.536.345.862.375l.144.006h8.37c.681 0 1.26-.44 1.391-1.039l.023-.13 1.434-13.35h.002Zm-5.048 2.852a.9.9 0 0 1 .56.191.761.761 0 0 1 .283.48l.008.107v7.259a.743.743 0 0 1-.23.53.885.885 0 0 1-.563.245.906.906 0 0 1-.596-.172.764.764 0 0 1-.306-.497l-.008-.106v-7.26c0-.206.09-.404.25-.55a.894.894 0 0 1 .602-.227Zm-3.973 0a.9.9 0 0 1 .56.191.76.76 0 0 1 .283.48l.008.107v7.259a.743.743 0 0 1-.23.53.886.886 0 0 1-.563.245.906.906 0 0 1-.596-.172.764.764 0 0 1-.306-.497l-.008-.106v-7.26c0-.206.09-.404.25-.55a.894.894 0 0 1 .602-.227ZM10.5 1.556c-.498 0-.979.17-1.345.48A1.76 1.76 0 0 0 8.52 3.22l-.006.15h3.973c0-.482-.21-.944-.582-1.284a2.086 2.086 0 0 0-1.405-.531Z" fill="#000"/></svg>