<svg version="1.1" id="Layer_1" xmlns="http://www.w3.org/2000/svg" x="0" y="0" viewBox="0 0 511.999 511.999" style="enable-background:new 0 0 511.999 511.999" xml:space="preserve"><path style="fill:#2d527c" d="M477.832 408.28H142.075c-7.691 0-13.929-6.236-13.929-13.929 0-7.693 6.237-13.929 13.929-13.929h335.757c3.481 0 6.311-3.385 6.311-7.545V139.121c0-4.16-2.83-7.545-6.311-7.545H162.315c-3.481 0-6.311 3.385-6.311 7.545v167.826c0 7.693-6.237 13.929-13.929 13.929-7.691 0-13.929-6.236-13.929-13.929V139.121c0-19.521 15.328-35.402 34.168-35.402H477.83c18.84 0 34.168 15.881 34.168 35.402v233.755c.002 19.522-15.326 35.404-34.166 35.404z"/><path style="fill:#cee8fa" d="M142.075 139.121c0 6.854 3.085 13.298 8.303 17.341l169.697 131.493 169.697-131.493c5.218-4.043 8.303-10.485 8.303-17.341 0-11.86-9.062-21.474-20.24-21.474h-315.52c-11.178.001-20.24 9.615-20.24 21.474z"/><path style="fill:#2d527c" d="M320.073 301.884c-3.01 0-6.02-.974-8.531-2.918L141.845 167.473c-8.577-6.647-13.699-17.245-13.699-28.35 0-19.521 15.328-35.402 34.168-35.402H477.83c18.84 0 34.168 15.881 34.168 35.402 0 11.105-5.122 21.704-13.7 28.35L328.604 298.966a13.903 13.903 0 0 1-8.531 2.918zM162.315 131.576c-3.479 0-6.311 3.385-6.311 7.545 0 2.555 1.085 4.921 2.904 6.331l161.165 124.883 161.164-124.883c1.819-1.41 2.905-3.776 2.905-6.331 0-4.16-2.832-7.545-6.311-7.545H162.315z"/><path style="fill:#2d527c" d="M140.681 195.17H13.929C6.237 195.17 0 188.934 0 181.242s6.237-13.929 13.929-13.929h126.752c7.691 0 13.929 6.236 13.929 13.929s-6.238 13.928-13.929 13.928zM140.681 258.545H55.719c-7.691 0-13.929-6.236-13.929-13.929s6.237-13.929 13.929-13.929h84.962c7.691 0 13.929 6.236 13.929 13.929s-6.238 13.929-13.929 13.929zM140.681 321.921H97.509c-7.691 0-13.929-6.236-13.929-13.929s6.237-13.929 13.929-13.929h43.172c7.691 0 13.929 6.236 13.929 13.929s-6.238 13.929-13.929 13.929z"/></svg>